<svg width="1079" height="1013" viewBox="0 0 1079 1013" fill="none" xmlns="http://www.w3.org/2000/svg">
<path d="M609.504 845.321C730.537 843.874 908.725 720.958 799.479 564.372C690.233 407.785 913.763 387.629 1079 437.747C856.867 643.512 1021.82 197.47 569.686 258.084C117.548 318.698 427.603 111.284 639.149 0H61.3462V1013H822.672C821.751 941.442 782.529 886.993 609.504 845.321Z" fill="#663613"/>
<path d="M548.158 845.321C669.191 843.874 847.379 720.958 738.133 564.372C628.887 407.785 858.846 371.961 1017.65 437.747C815.805 613.834 960.478 197.47 508.34 258.084C56.2016 318.698 397.959 175.586 609.504 64.3018H0V925.945H871.709C526.39 1105 721.183 886.993 548.158 845.321Z" fill="#FFA500"/>
</svg>
